<svg width="26" height="26" viewBox="0 0 26 26" fill="%s" xmlns="http://www.w3.org/2000/svg">
<path d="M22.821 14.2533C22.874 13.8533 22.9005 13.44 22.9005 13C22.9005 12.5733 22.874 12.1466 22.8077 11.7466L25.4994 9.63995C25.7381 9.45328 25.8044 9.09328 25.6586 8.82662L23.1127 4.39995C22.9536 4.10662 22.6221 4.01328 22.3304 4.10662L19.1613 5.38662C18.4983 4.87995 17.7956 4.45328 17.0132 4.13328L16.5359 0.746618C16.4829 0.426618 16.2177 0.199951 15.8994 0.199951H10.8077C10.4895 0.199951 10.2375 0.426618 10.1845 0.746618L9.70716 4.13328C8.92484 4.45328 8.20882 4.89328 7.55909 5.38662L4.39003 4.10662C4.09831 3.99995 3.76682 4.10662 3.60771 4.39995L1.07511 8.82662C0.915989 9.10662 0.969028 9.45328 1.23422 9.63995L3.92594 11.7466C3.85964 12.1466 3.8066 12.5866 3.8066 13C3.8066 13.4133 3.83312 13.8533 3.89942 14.2533L1.2077 16.36C0.969028 16.5466 0.90273 16.9066 1.04859 17.1733L3.59445 21.6C3.75356 21.8933 4.08505 21.9866 4.37677 21.8933L7.54583 20.6133C8.20882 21.1199 8.91158 21.5466 9.6939 21.8666L10.1713 25.2533C10.2375 25.5733 10.4895 25.8 10.8077 25.8H15.8994C16.2177 25.8 16.4829 25.5733 16.5226 25.2533L17 21.8666C17.7823 21.5466 18.4983 21.1199 19.1481 20.6133L22.3171 21.8933C22.6088 22 22.9403 21.8933 23.0994 21.6L25.6453 17.1733C25.8044 16.8799 25.7381 16.5466 25.4862 16.36L22.821 14.2533ZM13.3536 17.8C10.7282 17.8 8.58009 15.64 8.58009 13C8.58009 10.36 10.7282 8.19995 13.3536 8.19995C15.979 8.19995 18.1271 10.36 18.1271 13C18.1271 15.64 15.979 17.8 13.3536 17.8Z" fill="#9E9E9E"/>
</svg>
