<svg width="25" height="24" viewBox="0 0 25 24" fill="%s" xmlns="http://www.w3.org/2000/svg">
<path d="M13.4589 0H10.807V13.3333H13.4589V0ZM19.8633 2.89333L17.9805 4.78667C20.0755 6.48 21.4147 9.08 21.4147 12C21.4147 17.16 17.2644 21.3333 12.1329 21.3333C7.00144 21.3333 2.85116 17.16 2.85116 12C2.85116 9.08 4.19038 6.48 6.27215 4.77333L4.40254 2.89333C1.83016 5.09333 0.199219 8.34667 0.199219 12C0.199219 18.6267 5.54287 24 12.1329 24C18.723 24 24.0666 18.6267 24.0666 12C24.0666 8.34667 22.4357 5.09333 19.8633 2.89333Z" fill="#9E9E9E"/>
</svg>
